G05
M48
;#@! TF.GenerationSoftware,DesignSpark,DesignSpark PCB,10.0.5344
;#@! TF.CreationDate,2023-01-05T08:21:54--1:00*
;#@! TF.FileFunction,Plated,1,2,PTH
;FILE_FORMAT=3:5
;TYPE=PLATED
INCH,TZ
FMAT,2
T1C000.03000
T2C000.03150
T3C000.03937
T4C000.04000
T5C000.09843
T6C000.13780
%
T001
X2.30250Y0.67750
T002
X0.41500Y0.75250
X0.41500Y1.25250
X0.66500Y0.75250
X0.66500Y1.25250
X0.86500Y0.45250
X0.86516Y0.66922
X0.96500Y0.66904
X0.96502Y0.45255
X1.32750Y0.80250
X1.32750Y1.30250
X1.56500Y0.80250
X1.56500Y1.30250
X1.91500Y1.00250
X1.91516Y1.21922
X2.01500Y1.21904
X2.01502Y1.00255
X2.51500Y1.00250
X2.51516Y1.21922
X2.61500Y1.21904
X2.61502Y1.00255
X2.95250Y0.81500
X2.95250Y1.31500
X3.19000Y0.81500
X3.19000Y1.31500
X3.46500Y0.45250
X3.46516Y0.66922
X3.56500Y0.66904
X3.56502Y0.45255
X3.74000Y0.75250
X3.74000Y1.25250
X3.95250Y0.75250
X3.95250Y1.25250
T003
X0.81795Y0.37957
X1.86795Y0.92957
X2.46795Y0.92957
X3.41795Y0.37957
T004
X1.84689Y0.61894
X1.92563Y0.61894
X2.00437Y0.61894
X2.08311Y0.61894
X2.49689Y0.61894
X2.57563Y0.61894
X2.65437Y0.61894
X2.73311Y0.61894
T005
X0.83921Y0.56106
X0.98882Y0.56106
X1.88921Y1.11106
X2.03882Y1.11106
X2.48921Y1.11106
X2.63882Y1.11106
X3.43921Y0.56106
X3.58882Y0.56106
T006
X0.91500Y1.07169
X3.46500Y1.06825
M30
