G05
M48
;#@! TF.GenerationSoftware,DesignSpark,DesignSpark PCB,10.0.5344
;#@! TF.CreationDate,2023-01-19T10:46:12--1:00*
;#@! TF.FileFunction,Plated,1,2,PTH
;FILE_FORMAT=3:5
;TYPE=PLATED
INCH,TZ
FMAT,2
T1C000.02500
T2C000.03000
T3C000.04000
T4C000.04700
T5C000.04724
T6C000.05900
%
T001
X1.40250Y0.30344
X1.40250Y0.50344
X2.60250Y1.41594
X2.60250Y1.70344
X2.70250Y1.70344
X2.80250Y1.41594
X2.80250Y1.70344
T002
X1.71500Y1.51594
X2.15250Y0.76594
X2.76500Y0.76594
X2.80250Y1.52844
T003
X1.68439Y0.50738
X1.76313Y0.50738
X1.84187Y0.50738
X1.92061Y0.50738
X2.23439Y0.50738
X2.31313Y0.50738
X2.39187Y0.50738
X2.47061Y0.50738
T004
X0.37750Y0.95344
X0.37750Y1.15344
X1.35250Y1.62844
X1.55250Y1.62844
X3.72750Y0.90344
X3.72750Y1.10344
T005
X1.75250Y0.95344
X1.80250Y1.15344
X1.85250Y0.95344
X1.90250Y1.15344
X1.95250Y0.95344
X2.00250Y1.15344
X2.05250Y0.95344
X2.10250Y1.15344
X2.15250Y0.95344
X2.20250Y1.15344
X2.25250Y0.95344
X2.30250Y1.15344
X2.35250Y0.95344
X2.40250Y1.15344
X2.45250Y0.95344
T006
X0.77750Y0.30344
X0.77750Y0.90344
X0.77750Y1.10344
X0.77750Y1.70344
X1.02750Y0.30344
X1.02750Y0.90344
X1.02750Y1.10344
X1.02750Y1.70344
X3.07750Y0.25344
X3.07750Y0.85344
X3.07750Y1.05344
X3.07750Y1.65344
X3.32750Y0.25344
X3.32750Y0.85344
X3.32750Y1.05344
X3.32750Y1.65344
M30
