G04 DesignSpark PCB Gerber Version 10.0 Build 5299*
G04 #@! TF.Part,Single*
G04 #@! TF.FileFunction,Copper,L2,Bot*
G04 #@! TF.FilePolarity,Positive*
%FSLAX35Y35*%
%MOIN*%
G04 #@! TA.AperFunction,ComponentPad*
%ADD17O,0.06000X0.12000*%
%ADD70O,0.07050X0.14101*%
%ADD15O,0.07087X0.14173*%
%ADD18O,0.11811X0.17701*%
%ADD16R,0.06000X0.12000*%
G04 #@! TD.AperFunction*
%ADD10C,0.00500*%
%ADD20C,0.00700*%
%ADD11C,0.01000*%
%ADD14C,0.01969*%
%ADD12C,0.05118*%
G04 #@! TA.AperFunction,ComponentPad*
%ADD19C,0.07000*%
G04 #@! TA.AperFunction,ViaPad*
%ADD13C,0.08000*%
G04 #@! TA.AperFunction,ComponentPad*
%ADD71O,0.14101X0.07050*%
G04 #@! TD.AperFunction*
X0Y0D02*
D02*
D10*
X6500Y10344D02*
X412750D01*
Y192844D01*
X6500D01*
Y10344D01*
X10937Y188407D02*
Y14781D01*
X408313D01*
Y188407D01*
X10937D01*
X398907Y131501D02*
G75*
G02*
X400421Y127844I-3657J-3657D01*
G01*
Y81594D01*
G75*
G02*
X398907Y77938I-5171J0D01*
G01*
X355157Y34188D01*
G75*
G02*
X351496Y32673I-3657J3657D01*
G01*
X338406D01*
G75*
G02*
X339906Y28289I-5656J-4384D01*
G01*
Y22400D01*
G75*
G02*
X325594I-7156J0D01*
G01*
Y28289D01*
G75*
G02*
X327094Y32673I7156J0D01*
G01*
X313406D01*
G75*
G02*
X314906Y28289I-5656J-4384D01*
G01*
Y22400D01*
G75*
G02*
X300594I-7156J0D01*
G01*
Y28289D01*
G75*
G02*
X302094Y32673I7156J0D01*
G01*
X242754D01*
G75*
G02*
X239093Y34188I-4J5172D01*
G01*
X236281Y37000D01*
G75*
G02*
X235250Y37334I2909J10738D01*
G01*
G75*
G02*
X233613Y36855I-3937J10406D01*
G01*
X222524Y25765D01*
G75*
G02*
X217750Y23785I-4774J4766D01*
G01*
X182189D01*
G75*
G02*
X177415Y25765I0J6746D01*
G01*
X176313Y26867D01*
X175024Y25578D01*
G75*
G02*
X170250Y23598I-4774J4766D01*
G01*
X149716D01*
G75*
G02*
X128626Y30344I-9466J6746D01*
G01*
G75*
G02*
X149716Y37091I11624J0D01*
G01*
X167456D01*
X169393Y39028D01*
G75*
G02*
X166033Y43488I6920J8710D01*
G01*
X164189D01*
Y57988D01*
X166033D01*
G75*
G02*
X179022Y64528I10280J-4250D01*
G01*
G75*
G02*
X180530Y67938I5165J-246D01*
G01*
X190079Y77487D01*
Y80633D01*
G75*
G02*
X190020Y80574I-4815J4724D01*
G01*
X180020Y70574D01*
G75*
G02*
X175244Y68598I-4770J4770D01*
G01*
X117750D01*
G75*
G02*
X112976Y70578I0J6746D01*
G01*
X108809Y74746D01*
G75*
G02*
X101612Y73416I-6059J12654D01*
G01*
X87524Y59328D01*
G75*
G02*
X82750Y57348I-4774J4766D01*
G01*
X51500D01*
G75*
G02*
X46726Y59328I0J6746D01*
G01*
X32984Y73070D01*
G75*
G02*
X31004Y77844I4766J4774D01*
G01*
Y84150D01*
G75*
G02*
X28250Y105344I3222J11195D01*
G01*
G75*
G02*
X34226Y126994I5976J10000D01*
G01*
X41274D01*
G75*
G02*
X50771Y122091I0J-11650D01*
G01*
X66824D01*
G75*
G02*
X71004Y125591I10926J-8802D01*
G01*
Y135344D01*
G75*
G02*
X72984Y140119I6746J0D01*
G01*
X80476Y147611D01*
G75*
G02*
X85250Y149591I4774J-4766D01*
G01*
X128844D01*
G75*
G02*
X123600Y159321I6406J9730D01*
G01*
Y163598D01*
X116255D01*
G75*
G02*
X90250Y161030I-13505J3801D01*
G01*
G75*
G02*
X63720Y167400I-12500J6370D01*
G01*
Y173289D01*
G75*
G02*
X90250Y179659I14030J0D01*
G01*
G75*
G02*
X116255Y177091I12500J-6370D01*
G01*
X127750D01*
G75*
G02*
X129926Y176730I0J-6746D01*
G01*
G75*
G02*
X146900Y166368I5324J-10362D01*
G01*
Y159485D01*
X161224Y145161D01*
G75*
G02*
X159376Y151594I10277J6433D01*
G01*
G75*
G02*
X183624I12124J0D01*
G01*
G75*
G02*
X180381Y143341I-12124J0D01*
G01*
X184000D01*
G75*
G02*
X188774Y141361I0J-6746D01*
G01*
X195016Y135119D01*
G75*
G02*
X196996Y130344I-4766J-4774D01*
G01*
Y130092D01*
G75*
G02*
X210250Y124898I3254J-11204D01*
G01*
G75*
G02*
X214419Y128993I10000J-6011D01*
G01*
G75*
G02*
X215343Y130251I4582J-2399D01*
G01*
X222843Y137751D01*
G75*
G02*
X226504Y139266I3657J-3657D01*
G01*
X256110D01*
G75*
G02*
X255500Y141594I4140J2328D01*
G01*
G75*
G02*
X265000I4750J0D01*
G01*
G75*
G02*
X264390Y139266I-4750J0D01*
G01*
X268862D01*
G75*
G02*
X269803Y146692I11389J2329D01*
G01*
G75*
G02*
X272226Y161934I10447J6153D01*
G01*
G75*
G02*
X269622Y165636I8024J8411D01*
G01*
G75*
G02*
Y175053I628J4708D01*
G01*
G75*
G02*
X291742Y172091I10628J-4708D01*
G01*
X294245D01*
G75*
G02*
X320250Y174659I13505J-3801D01*
G01*
G75*
G02*
X346780Y168289I12500J-6370D01*
G01*
Y162400D01*
G75*
G02*
X320250Y156030I-14030J0D01*
G01*
G75*
G02*
X294245Y158598I-12500J6370D01*
G01*
X290922D01*
G75*
G02*
X290697Y146692I-10672J-5754D01*
G01*
G75*
G02*
X291638Y139266I-10448J-5097D01*
G01*
X388996D01*
G75*
G02*
X392657Y137751I4J-5171D01*
G01*
X398907Y131501D01*
X135500Y50344D02*
G75*
G02*
X145000I4750J0D01*
G01*
G75*
G02*
X135500I-4750J0D01*
G01*
X95594Y33289D02*
G75*
G02*
X109906I7156J0D01*
G01*
Y27400D01*
G75*
G02*
X95594I-7156J0D01*
G01*
Y33289D01*
X70594D02*
G75*
G02*
X84906I7156J0D01*
G01*
Y27400D01*
G75*
G02*
X70594I-7156J0D01*
G01*
Y33289D01*
X150474Y166368D02*
G75*
G02*
X160026I4776J0D01*
G01*
Y159321D01*
G75*
G02*
X150474I-4776J0D01*
G01*
Y166368D01*
X250600Y177844D02*
G75*
G02*
X251850Y176594I0J-1250D01*
G01*
Y167494D01*
G75*
G02*
X250600Y166244I-1250J0D01*
G01*
X165900D01*
G75*
G02*
X164650Y167494I0J1250D01*
G01*
Y176594D01*
G75*
G02*
X165900Y177844I1250J0D01*
G01*
X250600D01*
X255500Y170344D02*
G75*
G02*
X265000I4750J0D01*
G01*
G75*
G02*
X255500I-4750J0D01*
G01*
X11187Y30344D02*
G36*
X11187Y30344D02*
Y15031D01*
X408063D01*
Y30344D01*
X339604D01*
G75*
G02*
X339906Y28289I-6855J-2056D01*
G01*
Y22400D01*
G75*
G02*
X325594I-7156J0D01*
G01*
Y28289D01*
G75*
G02*
X325896Y30344I7158J-1D01*
G01*
X314604D01*
G75*
G02*
X314906Y28289I-6855J-2056D01*
G01*
Y22400D01*
G75*
G02*
X300594I-7156J0D01*
G01*
Y28289D01*
G75*
G02*
X300896Y30344I7158J-1D01*
G01*
X227104D01*
X222524Y25765D01*
G75*
G02*
X217750Y23785I-4774J4767D01*
G01*
X182189D01*
G75*
G02*
X177415Y25765I0J6746D01*
G01*
X176313Y26867D01*
X175024Y25578D01*
G75*
G02*
X170250Y23598I-4774J4767D01*
G01*
X149716D01*
G75*
G02*
X128626Y30344I-9466J6746D01*
G01*
Y30344D01*
X109906D01*
Y27400D01*
G75*
G02*
X95594I-7156J0D01*
G01*
Y30344D01*
X84906D01*
Y27400D01*
G75*
G02*
X70594I-7156J0D01*
G01*
Y30344D01*
X11187D01*
G37*
Y50344D02*
G36*
X11187Y50344D02*
Y30344D01*
X70594D01*
Y33289D01*
G75*
G02*
X84906I7156J0D01*
G01*
Y30344D01*
X95594D01*
Y33289D01*
G75*
G02*
X109906I7156J0D01*
G01*
Y30344D01*
X128626D01*
G75*
G02*
X149716Y37091I11624J0D01*
G01*
X167456D01*
X169393Y39028D01*
G75*
G02*
X166033Y43488I6919J8710D01*
G01*
X164189D01*
Y50344D01*
X145000D01*
G75*
G02*
X135500I-4750J0D01*
G01*
X11187D01*
G37*
X233613Y36855D02*
G36*
X233613Y36855D02*
X227104Y30344D01*
X300896D01*
G75*
G02*
X302094Y32673I6857J-2056D01*
G01*
X242754D01*
G75*
G02*
X239093Y34188I-4J5172D01*
G01*
X236281Y37000D01*
G75*
G02*
X235250Y37334I2909J10738D01*
G01*
G75*
G02*
X233613Y36855I-3928J10373D01*
G01*
G37*
X313406Y32673D02*
G36*
X313406Y32673D02*
G75*
G02*
X314604Y30344I-5656J-4383D01*
G01*
X325896D01*
G75*
G02*
X327094Y32673I6857J-2056D01*
G01*
X313406D01*
G37*
X338406D02*
G36*
X338406Y32673D02*
G75*
G02*
X339604Y30344I-5656J-4383D01*
G01*
X408063D01*
Y50344D01*
X371313D01*
X355157Y34188D01*
G75*
G02*
X351496Y32673I-3657J3657D01*
G01*
X338406D01*
G37*
X11187Y101281D02*
G36*
X11187Y101281D02*
Y50344D01*
X135500D01*
G75*
G02*
X145000I4750J0D01*
G01*
X164189D01*
Y57988D01*
X166033D01*
G75*
G02*
X179022Y64528I10281J-4250D01*
G01*
G75*
G02*
X180530Y67938I5166J-246D01*
G01*
X190079Y77487D01*
Y80633D01*
G75*
G02*
X190020Y80574I-4429J4341D01*
G01*
X180020Y70574D01*
G75*
G02*
X175244Y68598I-4769J4768D01*
G01*
X117750D01*
G75*
G02*
X112976Y70578I0J6746D01*
G01*
X108809Y74746D01*
G75*
G02*
X101612Y73416I-6059J12657D01*
G01*
X87524Y59328D01*
G75*
G02*
X82750Y57348I-4774J4767D01*
G01*
X51500D01*
G75*
G02*
X46726Y59328I0J6746D01*
G01*
X32984Y73070D01*
G75*
G02*
X31004Y77844I4767J4774D01*
G01*
Y84150D01*
G75*
G02*
X22577Y95344I3222J11195D01*
G01*
G75*
G02*
X24203Y101281I11650J0D01*
G01*
X11187D01*
G37*
X398907Y77938D02*
G36*
X398907Y77938D02*
X371313Y50344D01*
X408063D01*
Y101281D01*
X400421D01*
Y81594D01*
G75*
G02*
X398907Y77938I-5172J0D01*
G01*
G37*
X11187Y162844D02*
G36*
X11187Y162844D02*
Y101281D01*
X24203D01*
G75*
G02*
X28250Y105344I10024J-5937D01*
G01*
G75*
G02*
X22577Y115344I5976J10000D01*
G01*
G75*
G02*
X34226Y126994I11650J0D01*
G01*
X41274D01*
G75*
G02*
X50771Y122091I1J-11648D01*
G01*
X66824D01*
G75*
G02*
X71004Y125591I10931J-8808D01*
G01*
Y135344D01*
G75*
G02*
X72984Y140119I6746J0D01*
G01*
X80476Y147611D01*
G75*
G02*
X85250Y149591I4774J-4767D01*
G01*
X128844D01*
G75*
G02*
X123600Y159321I6406J9730D01*
G01*
Y162844D01*
X116019D01*
G75*
G02*
X90250Y161030I-13269J4556D01*
G01*
G75*
G02*
X64481Y162844I-12500J6370D01*
G01*
X11187D01*
G37*
X146900D02*
G36*
X146900Y162844D02*
Y159485D01*
X161224Y145161D01*
G75*
G02*
X159376Y151594I10281J6435D01*
G01*
G75*
G02*
X166980Y162844I12124J0D01*
G01*
X160026D01*
Y159321D01*
G75*
G02*
X150474I-4776J0D01*
G01*
Y162844D01*
X146900D01*
G37*
X176020D02*
G36*
X176020Y162844D02*
G75*
G02*
X183624Y151594I-4520J-11250D01*
G01*
Y151594D01*
G75*
G02*
X180381Y143341I-12124J0D01*
G01*
X184000D01*
G75*
G02*
X188774Y141361I0J-6746D01*
G01*
X195016Y135119D01*
G75*
G02*
X196996Y130344I-4767J-4774D01*
G01*
Y130092D01*
G75*
G02*
X210250Y124898I3254J-11204D01*
G01*
G75*
G02*
X214419Y128993I10002J-6013D01*
G01*
G75*
G02*
X215343Y130251I4581J-2398D01*
G01*
X222843Y137751D01*
G75*
G02*
X226504Y139266I3657J-3657D01*
G01*
X256110D01*
G75*
G02*
X255500Y141594I4146J2330D01*
G01*
G75*
G02*
X265000I4750J0D01*
G01*
G75*
G02*
X264390Y139266I-4756J1D01*
G01*
X268862D01*
G75*
G02*
X268626Y141594I11392J2328D01*
G01*
G75*
G02*
X269803Y146692I11627J0D01*
G01*
G75*
G02*
X268126Y152844I10448J6153D01*
G01*
G75*
G02*
X272226Y161934I12125J0D01*
G01*
G75*
G02*
X271369Y162844I8021J8408D01*
G01*
X176020D01*
G37*
X291874Y141594D02*
G36*
X291874Y141594D02*
G75*
G02*
X291638Y139266I-11627J-1D01*
G01*
X388996D01*
G75*
G02*
X392657Y137751I3J-5172D01*
G01*
X398907Y131501D01*
G75*
G02*
X400421Y127844I-3657J-3657D01*
G01*
Y101281D01*
X408063D01*
Y162844D01*
X346780D01*
Y162400D01*
G75*
G02*
X320250Y156030I-14030J0D01*
G01*
G75*
G02*
X294245Y158598I-12500J6370D01*
G01*
X290922D01*
G75*
G02*
X292374Y152844I-10670J-5754D01*
G01*
G75*
G02*
X290697Y146692I-12123J0D01*
G01*
G75*
G02*
X291874Y141594I-10450J-5097D01*
G01*
G37*
X11187Y172044D02*
G36*
X11187Y172044D02*
Y162844D01*
X64481D01*
G75*
G02*
X63720Y167400I13270J4556D01*
G01*
Y172044D01*
X11187D01*
G37*
X116255Y163598D02*
G36*
X116255Y163598D02*
G75*
G02*
X116019Y162844I-13509J3805D01*
G01*
X123600D01*
Y163598D01*
X116255D01*
G37*
X146900Y166368D02*
G36*
X146900Y166368D02*
Y162844D01*
X150474D01*
Y166368D01*
G75*
G02*
X160026I4776J0D01*
G01*
Y162844D01*
X166980D01*
G75*
G02*
X176020I4520J-11250D01*
G01*
X271369D01*
G75*
G02*
X269622Y165636I8878J7499D01*
G01*
G75*
G02*
X265500Y170344I628J4708D01*
G01*
G75*
G02*
X265815Y172044I4750J0D01*
G01*
X264685D01*
G75*
G02*
X265000Y170344I-4436J-1700D01*
G01*
G75*
G02*
X255500I-4750J0D01*
G01*
G75*
G02*
X255815Y172044I4750J0D01*
G01*
X251850D01*
Y167494D01*
G75*
G02*
X250600Y166244I-1250J0D01*
G01*
X165900D01*
G75*
G02*
X164650Y167494I0J1250D01*
G01*
Y172044D01*
X145423D01*
G75*
G02*
X146900Y166368I-10174J-5676D01*
G01*
G37*
X346780Y168289D02*
G36*
X346780Y168289D02*
Y162844D01*
X408063D01*
Y172044D01*
X346268D01*
G75*
G02*
X346780Y168289I-13518J-3755D01*
G01*
G37*
X11187Y188157D02*
G36*
X11187Y188157D02*
Y172044D01*
X63720D01*
Y173289D01*
G75*
G02*
X90250Y179659I14030J0D01*
G01*
G75*
G02*
X116255Y177091I12500J-6370D01*
G01*
X127750D01*
G75*
G02*
X129926Y176730I-2J-6759D01*
G01*
G75*
G02*
X145423Y172044I5324J-10362D01*
G01*
X164650D01*
Y176594D01*
G75*
G02*
X165900Y177844I1250J0D01*
G01*
X250600D01*
G75*
G02*
X251850Y176594I0J-1250D01*
G01*
Y172044D01*
X255815D01*
G75*
G02*
X264685I4435J-1700D01*
G01*
X265815D01*
G75*
G02*
X269622Y175053I4435J-1700D01*
G01*
G75*
G02*
X291742Y172091I10628J-4708D01*
G01*
X294245D01*
G75*
G02*
X320250Y174659I13505J-3802D01*
G01*
G75*
G02*
X346268Y172044I12500J-6370D01*
G01*
X408063D01*
Y188157D01*
X11187D01*
G37*
X44496Y84150D02*
Y80639D01*
X54294Y70841D01*
X79956D01*
X83910Y74794D01*
G75*
G02*
X63720Y87400I-6160J12605D01*
G01*
Y93289D01*
G75*
G02*
X65624Y100344I14030J0D01*
G01*
G75*
G02*
X63720Y107400I12127J7056D01*
G01*
Y108598D01*
X50771D01*
G75*
G02*
X47250Y105344I-9498J6746D01*
G01*
G75*
G02*
X44496Y84150I-5976J-10000D01*
G01*
G36*
X44496Y84150D02*
Y80639D01*
X54294Y70841D01*
X79956D01*
X83910Y74794D01*
G75*
G02*
X63720Y87400I-6160J12605D01*
G01*
Y93289D01*
G75*
G02*
X65624Y100344I14030J0D01*
G01*
G75*
G02*
X63720Y107400I12127J7056D01*
G01*
Y108598D01*
X50771D01*
G75*
G02*
X47250Y105344I-9498J6746D01*
G01*
G75*
G02*
X44496Y84150I-5976J-10000D01*
G01*
G37*
X84496Y132550D02*
Y125591D01*
G75*
G02*
X90250Y119659I-6746J-12301D01*
G01*
G75*
G02*
X116780Y113289I12500J-6370D01*
G01*
Y107400D01*
G75*
G02*
X114876Y100344I-14030J0D01*
G01*
G75*
G02*
X116780Y93289I-12127J-7056D01*
G01*
Y87400D01*
G75*
G02*
X116703Y85932I-14030J-2D01*
G01*
X120544Y82091D01*
X172456D01*
X175604Y85238D01*
G75*
G02*
X174593Y87053I9648J6563D01*
G01*
G75*
G02*
X170457Y91801I657J4748D01*
G01*
Y98888D01*
G75*
G02*
X172673Y102929I4793J0D01*
G01*
G75*
G02*
X168583Y111801I7578J8872D01*
G01*
Y118888D01*
G75*
G02*
X168629Y119925I11668J2D01*
G01*
X166206Y122348D01*
X154000D01*
G75*
G02*
X149226Y124328I0J6746D01*
G01*
X137456Y136098D01*
X88044D01*
X84496Y132550D01*
G36*
X84496Y132550D02*
Y125591D01*
G75*
G02*
X90250Y119659I-6746J-12301D01*
G01*
G75*
G02*
X116780Y113289I12500J-6370D01*
G01*
Y107400D01*
G75*
G02*
X114876Y100344I-14030J0D01*
G01*
G75*
G02*
X116780Y93289I-12127J-7056D01*
G01*
Y87400D01*
G75*
G02*
X116703Y85932I-14030J-2D01*
G01*
X120544Y82091D01*
X172456D01*
X175604Y85238D01*
G75*
G02*
X174593Y87053I9648J6563D01*
G01*
G75*
G02*
X170457Y91801I657J4748D01*
G01*
Y98888D01*
G75*
G02*
X172673Y102929I4793J0D01*
G01*
G75*
G02*
X168583Y111801I7578J8872D01*
G01*
Y118888D01*
G75*
G02*
X168629Y119925I11668J2D01*
G01*
X166206Y122348D01*
X154000D01*
G75*
G02*
X149226Y124328I0J6746D01*
G01*
X137456Y136098D01*
X88044D01*
X84496Y132550D01*
G37*
X200421Y63202D02*
Y61076D01*
G75*
G02*
X203185Y53738I-8360J-7338D01*
G01*
Y47738D01*
G75*
G02*
X195845Y37278I-11124J0D01*
G01*
X214956D01*
X221072Y43394D01*
G75*
G02*
X221033Y43488I10249J4387D01*
G01*
X219189D01*
Y57988D01*
X221033D01*
G75*
G02*
X221710Y59353I10280J-4252D01*
G01*
G75*
G02*
X219941Y63907I4977J4554D01*
G01*
G75*
G02*
Y63909I2439J1D01*
G01*
G75*
G02*
Y63914I2506J2D01*
G01*
Y74237D01*
G75*
G02*
X210374Y74648I-4691J2357D01*
G01*
G75*
G02*
X208907Y71688I-5124J696D01*
G01*
X200421Y63202D01*
G36*
X200421Y63202D02*
Y61076D01*
G75*
G02*
X203185Y53738I-8360J-7338D01*
G01*
Y47738D01*
G75*
G02*
X195845Y37278I-11124J0D01*
G01*
X214956D01*
X221072Y43394D01*
G75*
G02*
X221033Y43488I10249J4387D01*
G01*
X219189D01*
Y57988D01*
X221033D01*
G75*
G02*
X221710Y59353I10280J-4252D01*
G01*
G75*
G02*
X219941Y63907I4977J4554D01*
G01*
G75*
G02*
Y63909I2439J1D01*
G01*
G75*
G02*
Y63914I2506J2D01*
G01*
Y74237D01*
G75*
G02*
X210374Y74648I-4691J2357D01*
G01*
G75*
G02*
X208907Y71688I-5124J696D01*
G01*
X200421Y63202D01*
G37*
X241996Y82282D02*
Y79389D01*
X248044Y73341D01*
X272380D01*
G75*
G02*
X271250Y76594I4120J3254D01*
G01*
G75*
G02*
X281750I5250J0D01*
G01*
G75*
G02*
X280620Y73341I-5250J0D01*
G01*
X294956D01*
X296139Y74524D01*
G75*
G02*
X293720Y82400I11611J7875D01*
G01*
Y88289D01*
G75*
G02*
X295624Y95344I14030J0D01*
G01*
G75*
G02*
X293720Y102400I12127J7056D01*
G01*
Y108289D01*
G75*
G02*
X293737Y108980I14034J2D01*
G01*
G75*
G02*
X291500Y108598I-2237J6364D01*
G01*
X251469D01*
G75*
G02*
X247827Y102929I-11220J3203D01*
G01*
G75*
G02*
X250043Y98888I-2577J-4042D01*
G01*
Y91801D01*
G75*
G02*
X245907Y87053I-4793J0D01*
G01*
G75*
G02*
X241996Y82282I-10657J4748D01*
G01*
G36*
X241996Y82282D02*
Y79389D01*
X248044Y73341D01*
X272380D01*
G75*
G02*
X271250Y76594I4120J3254D01*
G01*
G75*
G02*
X281750I5250J0D01*
G01*
G75*
G02*
X280620Y73341I-5250J0D01*
G01*
X294956D01*
X296139Y74524D01*
G75*
G02*
X293720Y82400I11611J7875D01*
G01*
Y88289D01*
G75*
G02*
X295624Y95344I14030J0D01*
G01*
G75*
G02*
X293720Y102400I12127J7056D01*
G01*
Y108289D01*
G75*
G02*
X293737Y108980I14034J2D01*
G01*
G75*
G02*
X291500Y108598I-2237J6364D01*
G01*
X251469D01*
G75*
G02*
X247827Y102929I-11220J3203D01*
G01*
G75*
G02*
X250043Y98888I-2577J-4042D01*
G01*
Y91801D01*
G75*
G02*
X245907Y87053I-4793J0D01*
G01*
G75*
G02*
X241996Y82282I-10657J4748D01*
G01*
G37*
X257971Y45567D02*
G75*
G02*
X257133Y43016I-10910J2171D01*
G01*
X349358D01*
X351909Y45567D01*
X257971D01*
G36*
X257971Y45567D02*
G75*
G02*
X257133Y43016I-10910J2171D01*
G01*
X349358D01*
X351909Y45567D01*
X257971D01*
G37*
X291788Y125173D02*
X250080D01*
G75*
G02*
X251469Y122091I-9830J-6286D01*
G01*
X288706D01*
X291788Y125173D01*
G36*
X291788Y125173D02*
X250080D01*
G75*
G02*
X251469Y122091I-9830J-6286D01*
G01*
X288706D01*
X291788Y125173D01*
G37*
X297744Y59848D02*
X256357D01*
G75*
G02*
X257971Y55909I-9296J-6111D01*
G01*
X351002D01*
X353691Y58598D01*
X320250D01*
G75*
G02*
X315476Y60578I0J6746D01*
G01*
X308375Y67679D01*
X302520Y61824D01*
G75*
G02*
X297744Y59848I-4770J4770D01*
G01*
G36*
X297744Y59848D02*
X256357D01*
G75*
G02*
X257971Y55909I-9296J-6111D01*
G01*
X351002D01*
X353691Y58598D01*
X320250D01*
G75*
G02*
X315476Y60578I0J6746D01*
G01*
X308375Y67679D01*
X302520Y61824D01*
G75*
G02*
X297744Y59848I-4770J4770D01*
G01*
G37*
X346780Y82400D02*
G75*
G02*
X342266Y72091I-14030J0D01*
G01*
X352456D01*
X361764Y81399D01*
G75*
G02*
X361006Y98598I7463J8946D01*
G01*
X346255D01*
G75*
G02*
X344876Y95344I-13505J3802D01*
G01*
G75*
G02*
X346780Y88289I-12127J-7056D01*
G01*
Y82400D01*
G36*
X346780Y82400D02*
G75*
G02*
X342266Y72091I-14030J0D01*
G01*
X352456D01*
X361764Y81399D01*
G75*
G02*
X361006Y98598I7463J8946D01*
G01*
X346255D01*
G75*
G02*
X344876Y95344I-13505J3802D01*
G01*
G75*
G02*
X346780Y88289I-12127J-7056D01*
G01*
Y82400D01*
G37*
X378108Y125173D02*
X336212D01*
X337520Y123865D01*
G75*
G02*
X339304Y120694I-4770J-4770D01*
G01*
G75*
G02*
X346255Y112091I-6554J-12405D01*
G01*
X357708D01*
G75*
G02*
X369226Y121994I11518J-1746D01*
G01*
X376274D01*
G75*
G02*
X385079Y117972I0J-11650D01*
G01*
Y118202D01*
X378108Y125173D01*
G36*
X378108Y125173D02*
X336212D01*
X337520Y123865D01*
G75*
G02*
X339304Y120694I-4770J-4770D01*
G01*
G75*
G02*
X346255Y112091I-6554J-12405D01*
G01*
X357708D01*
G75*
G02*
X369226Y121994I11518J-1746D01*
G01*
X376274D01*
G75*
G02*
X385079Y117972I0J-11650D01*
G01*
Y118202D01*
X378108Y125173D01*
G37*
D02*
D11*
X72344Y30344D02*
X70344D01*
X77750Y21994D02*
Y19994D01*
Y38695D02*
Y40695D01*
X83156Y30344D02*
X85156D01*
X97344D02*
X95344D01*
X102750Y21994D02*
Y19994D01*
Y38695D02*
Y40695D01*
X108156Y30344D02*
X110156D01*
X137250Y50344D02*
X135250D01*
X140250Y47344D02*
Y45344D01*
Y53344D02*
Y55344D01*
X143250Y50344D02*
X145250D01*
X152225Y162844D02*
X150226D01*
X155250Y156294D02*
Y154297D01*
Y169395D02*
Y171392D01*
X158275Y162844D02*
X160274D01*
X172060Y92155D02*
X170383Y90478D01*
X172060Y98534D02*
X170383Y100211D01*
X212775Y74120D02*
X211361Y72706D01*
X217725Y74120D02*
X219139Y72706D01*
X248440Y92155D02*
X250117Y90478D01*
X248440Y98534D02*
X250117Y100211D01*
X257250Y141594D02*
X255250D01*
X257250Y170344D02*
X255250D01*
X260250Y144594D02*
Y146594D01*
Y167344D02*
Y165344D01*
Y173344D02*
Y175344D01*
X263250Y141594D02*
X265250D01*
X263250Y170344D02*
X265250D01*
X268129Y168223D02*
X266715Y166809D01*
X268129Y172466D02*
X266715Y173880D01*
X273000Y76594D02*
X271000D01*
X276500Y80094D02*
Y82094D01*
X280000Y76594D02*
X282000D01*
X302724Y20318D02*
X301252Y18847D01*
X302724Y30371D02*
X301252Y31842D01*
X312776Y20318D02*
X314248Y18847D01*
X312776Y30371D02*
X314248Y31842D01*
X327724Y20318D02*
X326252Y18847D01*
X327724Y30371D02*
X326252Y31842D01*
X337776Y20318D02*
X339248Y18847D01*
X337776Y30371D02*
X339248Y31842D01*
D02*
D12*
X19000Y105344D02*
Y76594D01*
X65250Y30344D01*
X77750D01*
X37750Y95344D02*
Y77844D01*
X51500Y64094D01*
X82750D01*
X102750Y84094D01*
Y90344D01*
X37750Y115344D02*
X72750D01*
X77750Y110344D01*
Y30344D02*
X102750D01*
X77750Y90344D02*
Y110344D01*
Y170344D02*
X102750D01*
Y30344D02*
X120250D01*
X140250Y50344D01*
X102750Y90344D02*
Y110344D01*
Y170344D02*
X127750D01*
X135250Y162844D01*
Y161594D01*
X160250Y136594D01*
X171500D01*
X155250Y162844D02*
X132750Y185344D01*
X34000D01*
X19000Y170344D01*
Y105344D01*
X155250Y162844D02*
X177750D01*
X210250Y130344D01*
Y115344D01*
X168439Y50738D02*
X140644D01*
X140250Y50344D01*
X171500Y136594D02*
X184000D01*
X190250Y130344D01*
Y115344D01*
X171500Y151594D02*
Y136594D01*
X175250Y95344D02*
X167750D01*
X131500Y131594D01*
X99000D01*
X91500Y124094D01*
Y84094D01*
X80250Y72844D01*
X60250D01*
X55250Y77844D01*
Y97844D01*
X47750Y105344D01*
X19000D01*
X176313Y36407D02*
X170250Y30344D01*
X140250D01*
X176313Y50738D02*
Y36407D01*
X180250Y115344D02*
Y117844D01*
X169000Y129094D01*
X154000D01*
X140250Y142844D01*
X85250D01*
X77750Y135344D01*
Y110344D01*
X185250Y95344D02*
Y85344D01*
X175250Y75344D01*
X117750D01*
X102750Y90344D01*
X210250Y115344D02*
Y137844D01*
X212750Y140344D01*
X259000D01*
X260250Y141594D01*
X223439Y50738D02*
X222356D01*
X215250Y57844D01*
Y76594D01*
X225250Y95344D02*
X215250D01*
X231313Y50738D02*
Y44094D01*
X217750Y30531D01*
X182189D01*
X176313Y36407D01*
X231313Y50738D02*
X231500D01*
Y59094D01*
X226687Y63907D01*
Y95344D01*
X225250D01*
X235250D02*
Y76594D01*
X245250Y66594D01*
X297750D01*
X307750Y76594D01*
Y85344D01*
X240250Y115344D02*
X291500D01*
X300250Y124094D01*
X327750D01*
X332750Y119094D01*
Y105344D01*
X260250Y170344D02*
X270250D01*
X260250D02*
Y141594D01*
X276500Y76594D02*
Y82844D01*
X265250Y94094D01*
X246500D01*
X245250Y95344D01*
X280250Y152844D02*
X279000D01*
X280250Y170344D02*
Y141594D01*
X307750Y25344D02*
X332750D01*
X307750Y85344D02*
Y105344D01*
Y165344D02*
X285250D01*
X280250Y170344D01*
X332750Y25344D02*
X349000D01*
X404000Y80344D01*
Y170344D01*
X394000Y180344D01*
X275250D01*
X270250Y175344D01*
Y170344D01*
X332750Y105344D02*
Y85344D01*
Y105344D02*
X367750D01*
X372750Y110344D01*
X332750Y165344D02*
X307750D01*
X372750Y90344D02*
Y82844D01*
X355250Y65344D01*
X320250D01*
X307750Y77844D01*
Y85344D01*
D02*
D13*
X171500Y151594D03*
X215250Y76594D03*
X276500D03*
X280250Y152844D03*
D02*
D14*
X184187Y50738D02*
Y64281D01*
X195250Y75344D01*
Y95344D01*
X200250Y115344D02*
Y110344D01*
X205250Y105344D01*
X211500D01*
X214000Y102844D01*
Y96594D01*
X215250Y95344D01*
X200250Y115344D02*
Y110344D01*
X205250Y95344D02*
Y75344D01*
X195250Y65344D01*
Y53927D01*
X192061Y50738D01*
X239187D02*
Y41407D01*
X242750Y37844D01*
X351500D01*
X395250Y81594D01*
Y127844D01*
X389000Y134094D01*
X226500D01*
X219000Y126594D01*
Y116594D01*
X220250Y115344D01*
X247061Y50738D02*
X353144D01*
X390250Y87844D01*
Y120344D01*
X380250Y130344D01*
X232750D01*
X230250Y127844D01*
Y115344D01*
D02*
D15*
X175250Y95344D03*
X180250Y115344D03*
X185250Y95344D03*
X190250Y115344D03*
X195250Y95344D03*
X200250Y115344D03*
X205250Y95344D03*
X210250Y115344D03*
X215250Y95344D03*
X220250Y115344D03*
X225250Y95344D03*
X230250Y115344D03*
X235250Y95344D03*
X240250Y115344D03*
X245250Y95344D03*
D02*
D16*
X168439Y50738D03*
X223439D03*
D02*
D17*
X176313D03*
X184187D03*
X192061D03*
X231313D03*
X239187D03*
X247061D03*
D02*
D18*
X77750Y30344D03*
Y90344D03*
Y110344D03*
Y170344D03*
X102750Y30344D03*
Y90344D03*
Y110344D03*
Y170344D03*
X307750Y25344D03*
Y85344D03*
Y105344D03*
Y165344D03*
X332750Y25344D03*
Y85344D03*
Y105344D03*
Y165344D03*
D02*
D19*
X140250Y30344D03*
Y50344D03*
X260250Y141594D03*
Y170344D03*
X270250D03*
X280250Y141594D03*
Y170344D03*
D02*
D70*
X135250Y162844D03*
X155250D03*
D02*
D71*
X37750Y95344D03*
Y115344D03*
X372750Y90344D03*
Y110344D03*
D02*
D20*
X248063Y169157D02*
Y174407D01*
X250250D02*
X245875D01*
X243250Y169157D02*
Y174407D01*
X238875D01*
X239750Y171782D02*
X243250D01*
Y169157D02*
X238875D01*
X236250D02*
X234063Y174407D01*
X231875Y169157D01*
X235375Y171344D02*
X232750D01*
X229250Y169157D02*
Y174407D01*
X227063Y171782D01*
X224875Y174407D01*
Y169157D01*
X210875Y170032D02*
X211313Y169594D01*
X212187Y169157D01*
X213500D01*
X214375Y169594D01*
X214813Y170032D01*
X215250Y170907D01*
Y172657D01*
X214813Y173532D01*
X214375Y173970D01*
X213500Y174407D01*
X212187D01*
X211313Y173970D01*
X210875Y173532D01*
X208250Y170907D02*
Y172657D01*
X207813Y173532D01*
X207375Y173970D01*
X206500Y174407D01*
X205625D01*
X204750Y173970D01*
X204313Y173532D01*
X203875Y172657D01*
Y170907D01*
X204313Y170032D01*
X204750Y169594D01*
X205625Y169157D01*
X206500D01*
X207375Y169594D01*
X207813Y170032D01*
X208250Y170907D01*
X201250D02*
Y172657D01*
X200813Y173532D01*
X200375Y173970D01*
X199500Y174407D01*
X198625D01*
X197750Y173970D01*
X197313Y173532D01*
X196875Y172657D01*
Y170907D01*
X197313Y170032D01*
X197750Y169594D01*
X198625Y169157D01*
X199500D01*
X200375Y169594D01*
X200813Y170032D01*
X201250Y170907D01*
X189875Y170032D02*
X190313Y169594D01*
X191187Y169157D01*
X192500D01*
X193375Y169594D01*
X193813Y170032D01*
X194250Y170907D01*
Y172657D01*
X193813Y173532D01*
X193375Y173970D01*
X192500Y174407D01*
X191187D01*
X190313Y173970D01*
X189875Y173532D01*
X187250Y169157D02*
Y174407D01*
Y171782D02*
X182875D01*
Y169157D02*
Y174407D01*
X178937Y169157D02*
X177187D01*
X178063D02*
Y174407D01*
X178937D02*
X177187D01*
X173250Y169157D02*
Y174407D01*
X168875D01*
X169750Y171782D02*
X173250D01*
Y169157D02*
X168875D01*
X0Y0D02*
M02*
