G05
M48
;#@! TF.GenerationSoftware,DesignSpark,DesignSpark PCB,10.0.5344
;#@! TF.CreationDate,2022-12-05T17:00:52--1:00*
;#@! TF.FileFunction,Plated,1,2,PTH
;FILE_FORMAT=3:5
;TYPE=PLATED
INCH,TZ
FMAT,2
T1C000.03200
T2C000.04000
T3C000.13780
%
T001
X0.55250Y1.31500
X0.55250Y1.71500
X0.75250Y1.31500
X0.75250Y1.71500
X0.75250Y2.26500
X0.85250Y1.01500
X0.85250Y1.16500
X0.90250Y1.81500
X0.90250Y2.21500
X1.10250Y2.31500
X1.20250Y1.81500
X1.20250Y2.21500
X1.25250Y1.01500
X1.25250Y1.16500
X1.35250Y1.01500
X1.35250Y1.16500
X1.40250Y1.81500
X1.40250Y2.21500
X1.60250Y2.31500
X1.70250Y1.81500
X1.70250Y2.21500
X1.75250Y1.01500
X1.75250Y1.16500
X1.85250Y1.31500
X1.85250Y1.71500
X2.05250Y1.31500
X2.05250Y1.71500
X2.05250Y2.26500
T002
X0.47450Y0.62600
X0.47450Y0.80400
X0.65250Y2.26500
X0.73050Y0.62600
X0.73050Y0.80400
X0.92450Y0.62600
X0.92450Y0.80400
X1.00250Y2.31500
X1.10250Y1.51500
X1.10250Y1.61500
X1.18050Y0.62600
X1.18050Y0.80400
X1.20250Y1.51500
X1.20250Y1.61500
X1.30250Y1.51500
X1.30250Y1.61500
X1.40250Y1.51500
X1.40250Y1.61500
X1.42450Y0.62600
X1.42450Y0.80400
X1.50250Y1.51500
X1.50250Y1.61500
X1.50250Y2.31500
X1.68050Y0.62600
X1.68050Y0.80400
X1.87450Y0.63850
X1.87450Y0.81650
X1.95250Y2.26500
X2.13050Y0.63850
X2.13050Y0.81650
T003
X0.55250Y1.09000
X0.55250Y1.96500
X2.05250Y1.09000
X2.05250Y1.95250
M30
