G04 DesignSpark PCB Gerber Version 10.0 Build 5299*
G04 #@! TF.Part,Single*
G04 #@! TF.FileFunction,Copper,L2,Bot*
G04 #@! TF.FilePolarity,Positive*
%FSLAX35Y35*%
%MOIN*%
G04 #@! TA.AperFunction,ComponentPad*
%ADD71R,0.07874X0.07874*%
G04 #@! TD.AperFunction*
%ADD10C,0.00500*%
%ADD16C,0.00787*%
%ADD11C,0.01000*%
%ADD14C,0.02000*%
%ADD13C,0.03000*%
%ADD12C,0.04000*%
G04 #@! TA.AperFunction,ComponentPad*
%ADD19C,0.06000*%
%ADD18C,0.07400*%
%ADD70C,0.07874*%
%ADD17C,0.08000*%
G04 #@! TA.AperFunction,WasherPad*
%ADD15C,0.27559*%
G04 #@! TD.AperFunction*
X0Y0D02*
D02*
D10*
X26500Y45250D02*
X234000D01*
Y251500D01*
X26500D01*
Y45250D01*
X30937Y247063D02*
Y49687D01*
X131543D01*
G75*
G02*
X131229Y49979I3708J4314D01*
G01*
X126685Y54522D01*
G75*
G02*
X106226Y62600I-8635J8078D01*
G01*
G75*
G02*
X110266Y71500I11824J0D01*
G01*
G75*
G02*
X110091Y71656I7784J8905D01*
G01*
X103918Y65481D01*
G75*
G02*
X82750Y55839I-11468J-2881D01*
G01*
G75*
G02*
X62174Y67240I-9700J6761D01*
G01*
X56585Y72830D01*
G75*
G02*
X56556Y72858I3685J3714D01*
G01*
G75*
G02*
X55234Y71500I-9107J7542D01*
G01*
G75*
G02*
X59274Y62600I-7784J-8900D01*
G01*
G75*
G02*
X35626I-11824J0D01*
G01*
G75*
G02*
X39666Y71500I11824J0D01*
G01*
G75*
G02*
X42544Y91158I7784J8900D01*
G01*
G75*
G02*
X44639Y128161I12706J17842D01*
G01*
G75*
G02*
X58541Y142126I10611J3339D01*
G01*
X71580Y155165D01*
G75*
G02*
X75250Y156687I3670J-3665D01*
G01*
X99122D01*
G75*
G02*
X100589Y168825I11127J4813D01*
G01*
X96861Y172554D01*
G75*
G02*
X79126Y181500I-6611J8946D01*
G01*
G75*
G02*
X101300Y182786I11124J0D01*
G01*
X110463Y173622D01*
G75*
G02*
X112640Y173386I-212J-12121D01*
G01*
G75*
G02*
X114641Y191106I7610J8114D01*
G01*
X104866D01*
G75*
G02*
X103616Y192356I0J1250D01*
G01*
Y201106D01*
X81618D01*
G75*
G02*
X80368Y202356I0J1250D01*
G01*
Y212593D01*
G75*
G02*
X81618Y213843I1250J0D01*
G01*
X82181D01*
G75*
G02*
X79213Y220109I8069J7657D01*
G01*
G75*
G02*
X64361Y226313I-3963J11391D01*
G01*
X60063D01*
Y236687D01*
X64361D01*
G75*
G02*
X87289Y232223I10889J-5187D01*
G01*
G75*
G02*
X97563Y229882I2961J-10723D01*
G01*
Y236687D01*
X101861D01*
G75*
G02*
X124810Y231646I10889J-5187D01*
G01*
G75*
G02*
X130250Y226373I-4560J-10146D01*
G01*
G75*
G02*
X145063Y231529I10000J-4873D01*
G01*
Y236687D01*
X149361D01*
G75*
G02*
X172274Y232438I10889J-5187D01*
G01*
G75*
G02*
X181372Y221687I-2024J-10938D01*
G01*
X190602D01*
X190659Y221744D01*
G75*
G02*
X186861Y226313I7091J9756D01*
G01*
X182563D01*
Y236687D01*
X186861D01*
G75*
G02*
X209811Y231500I10889J-5187D01*
G01*
G75*
G02*
X202853Y220572I-12061J0D01*
G01*
G75*
G02*
X201415Y217830I-5103J928D01*
G01*
X200133Y216548D01*
G75*
G02*
X227154Y195250I5117J-21298D01*
G01*
G75*
G02*
X208913Y173655I-21904J0D01*
G01*
G75*
G02*
X209500Y171500I-3663J-2156D01*
G01*
G75*
G02*
X201000I-4250J0D01*
G01*
G75*
G02*
X201587Y173655I4250J0D01*
G01*
G75*
G02*
X183742Y191106I3663J21595D01*
G01*
X175859D01*
G75*
G02*
X181374Y181500I-5609J-9606D01*
G01*
G75*
G02*
X160409Y176313I-11124J0D01*
G01*
X157398D01*
X149911Y168825D01*
G75*
G02*
X151222Y166659I-9661J-7326D01*
G01*
G75*
G02*
X155409Y162472I-971J-5159D01*
G01*
G75*
G02*
X160957Y157187I-5160J-10972D01*
G01*
X172894D01*
X176229Y160521D01*
G75*
G02*
X180254Y162187I4021J-4021D01*
G01*
X205246D01*
G75*
G02*
X209271Y160521I4J-5687D01*
G01*
X229271Y140521D01*
G75*
G02*
X229563Y140207I-4022J-4023D01*
G01*
Y247063D01*
X30937D01*
X33346Y196500D02*
G75*
G02*
X77154I21904J0D01*
G01*
G75*
G02*
X57970Y174766I-21904J0D01*
G01*
G75*
G02*
X59500Y171500I-2720J-3266D01*
G01*
G75*
G02*
X51000I-4250J0D01*
G01*
G75*
G02*
X52530Y174766I4250J0D01*
G01*
G75*
G02*
X33346Y196500I2720J21734D01*
G01*
X71000Y171500D02*
G75*
G02*
X79500I4250J0D01*
G01*
G75*
G02*
X71000I-4250J0D01*
G01*
X181000D02*
G75*
G02*
X189500I4250J0D01*
G01*
G75*
G02*
X181000I-4250J0D01*
G01*
X31187D02*
G36*
X31187Y171500D02*
Y49937D01*
X131271D01*
G75*
G02*
X131229Y49979I4123J4204D01*
G01*
X126685Y54522D01*
G75*
G02*
X106226Y62600I-8635J8078D01*
G01*
Y62600D01*
G75*
G02*
X110266Y71500I11823J0D01*
G01*
G75*
G02*
X110091Y71656I7861J8992D01*
G01*
X103918Y65481D01*
G75*
G02*
X104274Y62600I-11469J-2881D01*
G01*
G75*
G02*
X82750Y55839I-11824J0D01*
G01*
G75*
G02*
X61226Y62600I-9700J6761D01*
G01*
G75*
G02*
X62174Y67240I11824J0D01*
G01*
X56585Y72830D01*
X56556Y72858D01*
G75*
G02*
X55234Y71500I-9147J7581D01*
G01*
G75*
G02*
X59274Y62600I-7787J-8901D01*
G01*
G75*
G02*
X35626I-11824J0D01*
G01*
Y62600D01*
G75*
G02*
X39666Y71500I11823J0D01*
G01*
G75*
G02*
X35626Y80400I7784J8900D01*
G01*
G75*
G02*
X42544Y91158I11824J0D01*
G01*
G75*
G02*
X33346Y109000I12706J17842D01*
G01*
G75*
G02*
X44639Y128161I21904J0D01*
G01*
G75*
G02*
X44126Y131500I10611J3339D01*
G01*
G75*
G02*
X58541Y142126I11124J0D01*
G01*
X71580Y155165D01*
G75*
G02*
X75250Y156687I3671J-3667D01*
G01*
X99122D01*
G75*
G02*
X98126Y161500I11126J4813D01*
G01*
G75*
G02*
X100589Y168825I12123J0D01*
G01*
X97915Y171500D01*
X95123D01*
G75*
G02*
X85377I-4873J10000D01*
G01*
X79500D01*
G75*
G02*
X71000I-4250J0D01*
G01*
X59500D01*
G75*
G02*
X51000I-4250J0D01*
G01*
X31187D01*
G37*
X149911Y168825D02*
G36*
X149911Y168825D02*
G75*
G02*
X151222Y166659I-9674J-7333D01*
G01*
G75*
G02*
X155409Y162472I-970J-5158D01*
G01*
G75*
G02*
X160957Y157187I-5161J-10972D01*
G01*
X172894D01*
X176229Y160521D01*
G75*
G02*
X180254Y162187I4022J-4023D01*
G01*
X205246D01*
G75*
G02*
X209271Y160521I3J-5689D01*
G01*
X229271Y140521D01*
G75*
G02*
X229313Y140479I-4162J-4165D01*
G01*
Y171500D01*
X209500D01*
G75*
G02*
X201000I-4250J0D01*
G01*
X189500D01*
G75*
G02*
X181000I-4250J0D01*
G01*
X175123D01*
G75*
G02*
X165377I-4873J10000D01*
G01*
X152586D01*
X149911Y168825D01*
G37*
X31187Y192827D02*
G36*
X31187Y192827D02*
Y171500D01*
X51000D01*
G75*
G02*
X52530Y174766I4251J0D01*
G01*
G75*
G02*
X33657Y192827I2720J21734D01*
G01*
X31187D01*
G37*
X59500Y171500D02*
G36*
X59500Y171500D02*
X71000D01*
G75*
G02*
X79500I4250J0D01*
G01*
X85377D01*
G75*
G02*
X79126Y181500I4873J10000D01*
G01*
G75*
G02*
X101300Y182786I11124J0D01*
G01*
X110463Y173622D01*
G75*
G02*
X112640Y173386I-208J-12082D01*
G01*
G75*
G02*
X109126Y181500I7609J8114D01*
G01*
G75*
G02*
X114641Y191106I11124J0D01*
G01*
X104866D01*
G75*
G02*
X103616Y192356I0J1250D01*
G01*
Y192827D01*
X76843D01*
G75*
G02*
X57970Y174766I-21593J3673D01*
G01*
G75*
G02*
X59500Y171500I-2720J-3266D01*
G01*
G37*
X96861Y172554D02*
G36*
X96861Y172554D02*
G75*
G02*
X95123Y171500I-6611J8947D01*
G01*
X97915D01*
X96861Y172554D01*
G37*
X157398Y176313D02*
G36*
X157398Y176313D02*
X152586Y171500D01*
X165377D01*
G75*
G02*
X160409Y176313I4873J10000D01*
G01*
X157398D01*
G37*
X175123Y171500D02*
G36*
X175123Y171500D02*
X181000D01*
G75*
G02*
X189500I4250J0D01*
G01*
X201000D01*
G75*
G02*
Y171502I4749J1D01*
G01*
G75*
G02*
X201587Y173655I4244J0D01*
G01*
G75*
G02*
X183742Y191106I3663J21595D01*
G01*
X175859D01*
G75*
G02*
X181374Y181500I-5608J-9606D01*
G01*
Y181500D01*
G75*
G02*
X175123Y171500I-11124J0D01*
G01*
G37*
X208913Y173655D02*
G36*
X208913Y173655D02*
G75*
G02*
X209500Y171500I-3668J-2157D01*
G01*
X229313D01*
Y192827D01*
X227019D01*
G75*
G02*
X208913Y173655I-21769J2423D01*
G01*
G37*
X31187Y246813D02*
G36*
X31187Y246813D02*
Y192827D01*
X33657D01*
G75*
G02*
X33346Y196500I21594J3674D01*
G01*
G75*
G02*
X77154I21904J0D01*
G01*
G75*
G02*
X76843Y192827I-21904J0D01*
G01*
X103616D01*
Y201106D01*
X81618D01*
G75*
G02*
X80368Y202356I0J1250D01*
G01*
Y212593D01*
G75*
G02*
X81618Y213843I1250J0D01*
G01*
X82181D01*
G75*
G02*
X79213Y220109I8068J7657D01*
G01*
G75*
G02*
X64361Y226313I-3963J11391D01*
G01*
X60063D01*
Y236687D01*
X64361D01*
G75*
G02*
X87289Y232223I10889J-5187D01*
G01*
G75*
G02*
X97563Y229882I2960J-10723D01*
G01*
Y236687D01*
X101861D01*
G75*
G02*
X124810Y231646I10889J-5187D01*
G01*
G75*
G02*
X130250Y226373I-4561J-10147D01*
G01*
G75*
G02*
X145063Y231529I10000J-4872D01*
G01*
Y236687D01*
X149361D01*
G75*
G02*
X172274Y232438I10889J-5187D01*
G01*
G75*
G02*
X181372Y221687I-2024J-10938D01*
G01*
X190602D01*
X190659Y221744D01*
G75*
G02*
X186861Y226313I7091J9756D01*
G01*
X182563D01*
Y236687D01*
X186861D01*
G75*
G02*
X209811Y231500I10889J-5187D01*
G01*
G75*
G02*
X202853Y220572I-12061J0D01*
G01*
G75*
G02*
X201415Y217830I-5100J927D01*
G01*
X200133Y216548D01*
G75*
G02*
X227154Y195250I5117J-21298D01*
G01*
G75*
G02*
X227019Y192827I-21906J2D01*
G01*
X229313D01*
Y246813D01*
X31187D01*
G37*
X77398Y146313D02*
X73584Y142498D01*
G75*
G02*
X84322Y137937I1666J-10998D01*
G01*
X109352D01*
X110803Y139389D01*
G75*
G02*
X99292Y146313I-553J12111D01*
G01*
X77398D01*
G36*
X77398Y146313D02*
X73584Y142498D01*
G75*
G02*
X84322Y137937I1666J-10998D01*
G01*
X109352D01*
X110803Y139389D01*
G75*
G02*
X99292Y146313I-553J12111D01*
G01*
X77398D01*
G37*
X86413Y127563D02*
G75*
G02*
X96299Y117786I-1164J-11063D01*
G01*
X101313Y112772D01*
Y125602D01*
X99352Y127563D01*
X86413D01*
G36*
X86413Y127563D02*
G75*
G02*
X96299Y117786I-1164J-11063D01*
G01*
X101313Y112772D01*
Y125602D01*
X99352Y127563D01*
X86413D01*
G37*
X100279Y226313D02*
G75*
G02*
X98319Y213843I-10029J-4813D01*
G01*
X112181D01*
G75*
G02*
X109233Y219963I8069J7657D01*
G01*
G75*
G02*
X101861Y226313I3517J11537D01*
G01*
X100279D01*
G36*
X100279Y226313D02*
G75*
G02*
X98319Y213843I-10029J-4813D01*
G01*
X112181D01*
G75*
G02*
X109233Y219963I8069J7657D01*
G01*
G75*
G02*
X101861Y226313I3517J11537D01*
G01*
X100279D01*
G37*
X111687Y127567D02*
Y90366D01*
G75*
G02*
X119195Y92169I6363J-9966D01*
G01*
G75*
G02*
X117035Y109000I6055J9331D01*
G01*
G75*
G02*
X130250Y126437I8215J7500D01*
G01*
G75*
G02*
X132213Y127202I5001J-9937D01*
G01*
X126585Y132830D01*
G75*
G02*
X125063Y136500I3665J3670D01*
G01*
Y139566D01*
G75*
G02*
X123915Y137830I-4813J1934D01*
G01*
X115170Y129085D01*
G75*
G02*
X111687Y127567I-3670J3666D01*
G01*
G36*
X111687Y127567D02*
Y90366D01*
G75*
G02*
X119195Y92169I6363J-9966D01*
G01*
G75*
G02*
X117035Y109000I6055J9331D01*
G01*
G75*
G02*
X130250Y126437I8215J7500D01*
G01*
G75*
G02*
X132213Y127202I5001J-9937D01*
G01*
X126585Y132830D01*
G75*
G02*
X125063Y136500I3665J3670D01*
G01*
Y139566D01*
G75*
G02*
X123915Y137830I-4813J1934D01*
G01*
X115170Y129085D01*
G75*
G02*
X111687Y127567I-3670J3666D01*
G01*
G37*
X143465Y109000D02*
G75*
G02*
X141305Y92169I-8216J-7500D01*
G01*
G75*
G02*
X150023Y89480I1144J-11769D01*
G01*
Y116500D01*
G75*
G02*
X151554Y120196I5227J0D01*
G01*
X152671Y121313D01*
X145279D01*
G75*
G02*
X143465Y109000I-10029J-4813D01*
G01*
G36*
X143465Y109000D02*
G75*
G02*
X141305Y92169I-8216J-7500D01*
G01*
G75*
G02*
X150023Y89480I1144J-11769D01*
G01*
Y116500D01*
G75*
G02*
X151554Y120196I5227J0D01*
G01*
X152671Y121313D01*
X145279D01*
G75*
G02*
X143465Y109000I-10029J-4813D01*
G01*
G37*
X145437Y140372D02*
Y138648D01*
X147398Y136687D01*
X163102D01*
X172228Y145813D01*
X160957D01*
G75*
G02*
X145437Y140372I-10707J5687D01*
G01*
G36*
X145437Y140372D02*
Y138648D01*
X147398Y136687D01*
X163102D01*
X172228Y145813D01*
X160957D01*
G75*
G02*
X145437Y140372I-10707J5687D01*
G01*
G37*
X145859Y191106D02*
G75*
G02*
X150952Y184537I-5609J-9607D01*
G01*
X151580Y185165D01*
G75*
G02*
X155250Y186687I3670J-3665D01*
G01*
X160409D01*
G75*
G02*
X164641Y191106I9841J-5187D01*
G01*
X145859D01*
G36*
X145859Y191106D02*
G75*
G02*
X150952Y184537I-5609J-9607D01*
G01*
X151580Y185165D01*
G75*
G02*
X155250Y186687I3670J-3665D01*
G01*
X160409D01*
G75*
G02*
X164641Y191106I9841J-5187D01*
G01*
X145859D01*
G37*
X150091Y216313D02*
G75*
G02*
X148319Y213843I-9841J5187D01*
G01*
X162181D01*
G75*
G02*
X159548Y218463I8069J7658D01*
G01*
X158920Y217835D01*
G75*
G02*
X155250Y216313I-3670J3665D01*
G01*
X150091D01*
G36*
X150091Y216313D02*
G75*
G02*
X148319Y213843I-9841J5187D01*
G01*
X162181D01*
G75*
G02*
X159548Y218463I8069J7658D01*
G01*
X158920Y217835D01*
G75*
G02*
X155250Y216313I-3670J3665D01*
G01*
X150091D01*
G37*
X151531Y72828D02*
G75*
G02*
X150234Y71500I-9083J7575D01*
G01*
G75*
G02*
X153909Y59687I-7785J-8900D01*
G01*
X156591D01*
G75*
G02*
X157158Y67200I11459J2913D01*
G01*
X151554Y72804D01*
G75*
G02*
X151531Y72828I3748J3646D01*
G01*
G36*
X151531Y72828D02*
G75*
G02*
X150234Y71500I-9083J7575D01*
G01*
G75*
G02*
X153909Y59687I-7785J-8900D01*
G01*
X156591D01*
G75*
G02*
X157158Y67200I11459J2913D01*
G01*
X151554Y72804D01*
G75*
G02*
X151531Y72828I3748J3646D01*
G01*
G37*
X178144Y211313D02*
Y203843D01*
X184394D01*
G75*
G02*
X185029Y203669I0J-1250D01*
G01*
G75*
G02*
X190359Y211313I20222J-8420D01*
G01*
X178144D01*
G36*
X178144Y211313D02*
Y203843D01*
X184394D01*
G75*
G02*
X185029Y203669I0J-1250D01*
G01*
G75*
G02*
X190359Y211313I20222J-8420D01*
G01*
X178144D01*
G37*
X187398Y146313D02*
X183584Y142498D01*
G75*
G02*
X195250Y136373I1666J-10998D01*
G01*
G75*
G02*
X200063Y141341I10000J-4873D01*
G01*
Y144352D01*
X198102Y146313D01*
X187398D01*
G36*
X187398Y146313D02*
X183584Y142498D01*
G75*
G02*
X195250Y136373I1666J-10998D01*
G01*
G75*
G02*
X200063Y141341I10000J-4873D01*
G01*
Y144352D01*
X198102Y146313D01*
X187398D01*
G37*
X198669Y67583D02*
G75*
G02*
X198517Y59687I-11220J-3734D01*
G01*
X201983D01*
G75*
G02*
X205266Y72750I11067J4163D01*
G01*
G75*
G02*
X204482Y73501I7785J8904D01*
G01*
G75*
G02*
X203915Y72830I-4232J2999D01*
G01*
X198669Y67583D01*
G36*
X198669Y67583D02*
G75*
G02*
X198517Y59687I-11220J-3734D01*
G01*
X201983D01*
G75*
G02*
X205266Y72750I11067J4163D01*
G01*
G75*
G02*
X204482Y73501I7785J8904D01*
G01*
G75*
G02*
X203915Y72830I-4232J2999D01*
G01*
X198669Y67583D01*
G37*
X210437Y143270D02*
Y141341D01*
G75*
G02*
X215861Y128161I-5187J-9841D01*
G01*
G75*
G02*
X219563Y125580I-10611J-19162D01*
G01*
Y134144D01*
X210437Y143270D01*
G36*
X210437Y143270D02*
Y141341D01*
G75*
G02*
X215861Y128161I-5187J-9841D01*
G01*
G75*
G02*
X219563Y125580I-10611J-19162D01*
G01*
Y134144D01*
X210437Y143270D01*
G37*
D02*
D11*
X52750Y171500D02*
X50750D01*
X55250Y169000D02*
Y167000D01*
X57750Y171500D02*
X59750D01*
X61667Y227917D02*
X59813Y226063D01*
X61667Y235083D02*
X59813Y236937D01*
X72750Y171500D02*
X70750D01*
X75250Y169000D02*
Y167000D01*
Y174000D02*
Y176000D01*
X77750Y171500D02*
X79750D01*
X99313Y231500D02*
X97313D01*
X146667Y235083D02*
X144813Y236937D01*
X152725Y163975D02*
X154139Y165389D01*
X182750Y171500D02*
X180750D01*
X184167Y227917D02*
X182313Y226063D01*
X184167Y235083D02*
X182313Y236937D01*
X185250Y169000D02*
Y167000D01*
Y174000D02*
Y176000D01*
X187750Y171500D02*
X189750D01*
X202750D02*
X200750D01*
X205250Y169000D02*
Y167000D01*
X207750Y171500D02*
X209750D01*
D02*
D12*
X55250D02*
X75250D01*
X65250Y231500D02*
Y221500D01*
X75250Y211500D01*
Y171500D01*
X65250Y231500D02*
Y236500D01*
X70250Y241500D01*
X95250D01*
X145250D01*
X95250D02*
X102750Y234000D01*
Y231500D01*
X145250Y241500D02*
X190250D01*
X150250Y231500D02*
Y236500D01*
X145250Y241500D01*
X185250Y171500D02*
X215250D01*
X225250Y181500D01*
Y231500D01*
X215250Y241500D01*
X190250D01*
X185250Y171500D02*
X160250D01*
X150250Y161500D01*
X205250Y171500D02*
X185250D01*
D02*
D13*
X125250Y101500D02*
X135250D01*
X125250Y116500D02*
X135250D01*
Y101500D02*
Y116500D01*
X150250Y151500D02*
X175250D01*
X180250Y156500D01*
X205250D01*
X225250Y136500D01*
Y59000D01*
X220250Y54000D01*
X135250D01*
X130250Y59000D01*
Y91500D01*
X135250Y96500D01*
Y101500D01*
D02*
D14*
X55250Y131500D02*
X60250D01*
X75250Y116500D01*
Y101500D01*
X60250Y86500D01*
Y76500D01*
X73050Y63700D01*
Y62600D01*
X55250Y131500D02*
X75250Y151500D01*
X110250D01*
X73050Y80400D02*
X74000D01*
X73050D02*
X74150D01*
X85250Y91500D01*
Y101500D01*
X75250Y131500D02*
Y132750D01*
X101500D01*
X75250Y231500D02*
X80250D01*
X90250Y221500D01*
X85250Y116500D02*
X90250D01*
X100250Y106500D01*
Y88200D01*
X92450Y80400D01*
Y62600D02*
X93700D01*
X106500Y75400D01*
Y127750D01*
X101500Y132750D01*
X111500D01*
X120250Y141500D01*
Y151500D01*
X110250Y161500D02*
Y166500D01*
X95250Y181500D01*
X90250D01*
X112750Y231500D02*
X120250Y224000D01*
Y221500D01*
Y181500D02*
Y161500D01*
X121500Y150250D02*
X120250D01*
X130250Y151500D02*
Y136500D01*
X140250Y126500D01*
X175250D01*
X180250Y131500D01*
X185250D01*
X140250Y161500D02*
Y166500D01*
X155250Y181500D01*
X170250D01*
X140250D02*
X130250Y171500D01*
Y161500D01*
X160250Y231500D02*
Y226500D01*
X155250Y221500D01*
X140250D01*
X170250D02*
X175250Y216500D01*
X192750D01*
X197750Y221500D01*
Y231500D01*
X175250Y101500D02*
Y93850D01*
X187450Y81650D01*
X175250Y116500D02*
X170250D01*
X160250Y106500D01*
Y88200D01*
X168050Y80400D01*
X185250Y131500D02*
X180250D01*
X175250Y126500D01*
X165250D01*
X155250Y116500D01*
Y76500D01*
X168050Y63700D01*
Y62600D01*
X187450Y63850D02*
X187600D01*
X200250Y76500D01*
Y85250D01*
X182750Y102750D01*
Y114000D01*
X202750Y134000D01*
X205250D01*
Y131500D01*
Y146500D01*
X200250Y151500D01*
X185250D01*
X165250Y131500D01*
X145250D01*
X140250Y136500D01*
Y151500D01*
D02*
D15*
X55250Y109000D03*
Y196500D03*
X205250Y109000D03*
Y195250D03*
D02*
D16*
X174039Y204226D02*
Y210132D01*
X176500D02*
X171579D01*
X164689Y204719D02*
X165181Y204226D01*
X166165D01*
X167150D01*
X168134Y204719D01*
X168626Y205703D01*
Y207179D01*
X168134Y207671D01*
X167150Y208163D01*
X166165D01*
X165181Y207671D01*
X164689Y207179D01*
Y206687D01*
X165181Y206195D01*
X166165Y205703D01*
X167150D01*
X168134Y206195D01*
X168626Y206687D01*
X160752Y207671D02*
X159768Y208163D01*
X158291D01*
X157307Y207671D01*
X156815Y206687D01*
Y205211D01*
X157307Y204719D01*
X158291Y204226D01*
X159276D01*
X160260Y204719D01*
X160752Y205211D01*
Y205703D01*
X160260Y206195D01*
X159276Y206687D01*
X158291D01*
X157307Y206195D01*
X156815Y205703D01*
Y205211D02*
Y204226D01*
X152878D02*
Y208163D01*
Y207671D02*
X152386Y208163D01*
X151402D01*
X150909Y207671D01*
Y206195D01*
Y207671D02*
X150417Y208163D01*
X149433D01*
X148941Y207671D01*
Y204226D01*
X132209Y205211D02*
X132701Y204719D01*
X133685Y204226D01*
X135161D01*
X136146Y204719D01*
X136638Y205211D01*
X137130Y206195D01*
Y208163D01*
X136638Y209148D01*
X136146Y209640D01*
X135161Y210132D01*
X133685D01*
X132701Y209640D01*
X132209Y209148D01*
X129256Y205703D02*
X128764Y204719D01*
X127780Y204226D01*
X126795D01*
X125811Y204719D01*
X125319Y205703D01*
Y206687D01*
X125811Y207671D01*
X126795Y208163D01*
X127780D01*
X128764Y207671D01*
X129256Y206687D01*
Y205703D01*
X121382D02*
X120890Y204719D01*
X119906Y204226D01*
X118921D01*
X117937Y204719D01*
X117445Y205703D01*
Y206687D01*
X117937Y207671D01*
X118921Y208163D01*
X119906D01*
X120890Y207671D01*
X121382Y206687D01*
Y205703D01*
X109571Y207671D02*
X110555Y208163D01*
X112031D01*
X113016Y207671D01*
X113508Y206687D01*
Y205703D01*
X113016Y204719D01*
X112031Y204226D01*
X110555D01*
X109571Y204719D01*
X105634Y204226D02*
Y210132D01*
Y206687D02*
X105142Y207671D01*
X104157Y208163D01*
X103173D01*
X102189Y207671D01*
X101697Y206687D01*
Y204226D01*
X95791D02*
Y208163D01*
Y209640D02*
X85949Y204719D02*
X86441Y204226D01*
X87425D01*
X88409D01*
X89394Y204719D01*
X89886Y205703D01*
Y207179D01*
X89394Y207671D01*
X88409Y208163D01*
X87425D01*
X86441Y207671D01*
X85949Y207179D01*
Y206687D01*
X86441Y206195D01*
X87425Y205703D01*
X88409D01*
X89394Y206195D01*
X89886Y206687D01*
X171205Y195211D02*
X171697Y194719D01*
X172681Y194226D01*
X174157D01*
X175142Y194719D01*
X175634Y195211D01*
X176126Y196195D01*
Y198163D01*
X175634Y199148D01*
X175142Y199640D01*
X174157Y200132D01*
X172681D01*
X171697Y199640D01*
X171205Y199148D01*
X168252Y197671D02*
X167268Y198163D01*
X165791D01*
X164807Y197671D01*
X164315Y196687D01*
Y195211D01*
X164807Y194719D01*
X165791Y194226D01*
X166776D01*
X167760Y194719D01*
X168252Y195211D01*
Y195703D01*
X167760Y196195D01*
X166776Y196687D01*
X165791D01*
X164807Y196195D01*
X164315Y195703D01*
Y195211D02*
Y194226D01*
X160378D02*
Y198163D01*
Y196687D02*
X159886Y197671D01*
X158902Y198163D01*
X157917D01*
X156933Y197671D01*
X151684Y198163D02*
X149387D01*
X150535Y199148D02*
Y194719D01*
X150043Y194226D01*
X149551D01*
X149059Y194719D01*
X140693D02*
X141185Y194226D01*
X142169D01*
X143154D01*
X144138Y194719D01*
X144630Y195703D01*
Y197179D01*
X144138Y197671D01*
X143154Y198163D01*
X142169D01*
X141185Y197671D01*
X140693Y197179D01*
Y196687D01*
X141185Y196195D01*
X142169Y195703D01*
X143154D01*
X144138Y196195D01*
X144630Y196687D01*
X127406Y194226D02*
X125437D01*
X126421D02*
Y200132D01*
X127406D02*
X125437D01*
X121008Y194226D02*
Y200132D01*
Y197179D02*
X116087D01*
Y194226D02*
Y200132D01*
X113134Y194226D02*
Y200132D01*
X110673Y197179D01*
X108213Y200132D01*
Y194226D01*
D02*
D17*
X110250Y151500D03*
Y161500D03*
X120250Y151500D03*
Y161500D03*
X130250Y151500D03*
Y161500D03*
X140250Y151500D03*
Y161500D03*
X150250Y151500D03*
Y161500D03*
D02*
D18*
X47450Y62600D03*
Y80400D03*
X73050Y62600D03*
Y80400D03*
X92450Y62600D03*
Y80400D03*
X118050Y62600D03*
Y80400D03*
X142450Y62600D03*
Y80400D03*
X168050Y62600D03*
Y80400D03*
X187450Y63850D03*
Y81650D03*
X213050Y63850D03*
Y81650D03*
D02*
D19*
X55250Y131500D03*
Y171500D03*
X75250Y131500D03*
Y171500D03*
X85250Y101500D03*
Y116500D03*
X90250Y181500D03*
Y221500D03*
X120250Y181500D03*
Y221500D03*
X125250Y101500D03*
Y116500D03*
X135250Y101500D03*
Y116500D03*
X140250Y181500D03*
Y221500D03*
X170250Y181500D03*
Y221500D03*
X175250Y101500D03*
Y116500D03*
X185250Y131500D03*
Y171500D03*
X205250Y131500D03*
Y171500D03*
D02*
D70*
X75250Y231500D03*
X112750D03*
X160250D03*
X197750D03*
D02*
D71*
X65250D03*
X102750D03*
X150250D03*
X187750D03*
X0Y0D02*
M02*
